<svg width="30" height="26" viewBox="0 0 30 26" fill="none" xmlns="http://www.w3.org/2000/svg">
<path d="M1 1H3.33333L4.33333 5L1 1ZM4.33333 5L7.66667 18.3333H25L28.3333 5H4.33333Z" stroke="#03314B" stroke-width="2" stroke-linecap="round" stroke-linejoin="round"/>
<path d="M7.6665 25C8.77107 25 9.6665 24.1046 9.6665 23C9.6665 21.8954 8.77107 21 7.6665 21C6.56193 21 5.6665 21.8954 5.6665 23C5.6665 24.1046 6.56193 25 7.6665 25Z" stroke="#03314B" stroke-width="2" stroke-linecap="round" stroke-linejoin="round"/>
<path d="M25 25C26.1046 25 27 24.1046 27 23C27 21.8954 26.1046 21 25 21C23.8954 21 23 21.8954 23 23C23 24.1046 23.8954 25 25 25Z" stroke="#03314B" stroke-width="2" stroke-linecap="round" stroke-linejoin="round"/>
<path d="M13.6665 11.6666H18.9998" stroke="#03314B" stroke-width="2" stroke-linecap="round" stroke-linejoin="round"/>
<path d="M16.3335 14.3333V9" stroke="#03314B" stroke-width="2" stroke-linecap="round" stroke-linejoin="round"/>
</svg>