<svg width="32" height="32" viewBox="0 0 32 32" fill="none" xmlns="http://www.w3.org/2000/svg">
<g id="fi:trash-2">
<path id="Vector" d="M4 8H6.66667H28" stroke="#03314B" stroke-width="2" stroke-linecap="round" stroke-linejoin="round"/>
<path id="Vector_2" d="M10.6667 8.00002V5.33335C10.6667 4.62611 10.9476 3.94783 11.4477 3.44774C11.9478 2.94764 12.6261 2.66669 13.3333 2.66669H18.6667C19.3739 2.66669 20.0522 2.94764 20.5523 3.44774C21.0524 3.94783 21.3333 4.62611 21.3333 5.33335V8.00002M25.3333 8.00002V26.6667C25.3333 27.3739 25.0524 28.0522 24.5523 28.5523C24.0522 29.0524 23.3739 29.3334 22.6667 29.3334H9.33332C8.62608 29.3334 7.9478 29.0524 7.4477 28.5523C6.94761 28.0522 6.66666 27.3739 6.66666 26.6667V8.00002H25.3333Z" stroke="#03314B" stroke-width="2" stroke-linecap="round" stroke-linejoin="round"/>
<path id="Vector_3" d="M18.6667 14.6667V22.6667" stroke="#03314B" stroke-width="2" stroke-linecap="round" stroke-linejoin="round"/>
<path id="Vector_4" d="M13.3333 14.6667V22.6667" stroke="#03314B" stroke-width="2" stroke-linecap="round" stroke-linejoin="round"/>
</g>
</svg>
