<svg width="250" height="64" viewBox="0 0 250 64" fill="none" xmlns="http://www.w3.org/2000/svg">
<path d="M16 47.5527V17.4054H37.7343V22.3235H22.481V30.0519H35.9668V34.9062H22.481V47.5527H16Z" fill="#45486E"/>
<path d="M50.009 48.0002C45.7537 48.0002 42.6442 47.0102 40.6475 44.9663C38.6835 42.9863 37.6688 40.144 37.6688 36.4395C37.6688 32.7669 38.6835 29.9246 40.6802 27.9127C42.6769 25.9007 45.7865 24.8788 50.009 24.8788C54.2642 24.8788 57.3738 25.8688 59.3704 27.8807C61.3671 29.8927 62.3818 32.735 62.3818 36.4076C62.3818 40.0802 61.3998 42.9225 59.4032 44.9344C57.4392 47.0102 54.2969 48.0002 50.009 48.0002ZM50.009 42.635C52.1038 42.635 53.5768 42.1879 54.4606 41.2618C55.3443 40.3357 55.8026 38.7389 55.8026 36.4714C55.8026 34.204 55.3443 32.6072 54.4606 31.6811C53.5768 30.755 52.0711 30.3079 50.009 30.3079C47.9468 30.3079 46.5066 30.755 45.5901 31.6811C44.7063 32.5753 44.248 34.1721 44.248 36.4395C44.248 38.7069 44.7063 40.3037 45.5901 41.2299C46.4738 42.156 47.9468 42.635 50.009 42.635Z" fill="#45486E"/>
<path d="M77.0457 47.9995C72.7905 47.9995 69.6809 47.0095 67.6842 44.9656C65.6875 42.9537 64.7056 40.1114 64.7056 36.4388C64.7056 32.7662 65.7203 29.9239 67.717 27.912C69.7136 25.9 72.8232 24.91 77.0457 24.91C81.3009 24.91 84.4105 25.9 86.4072 27.912C88.4039 29.9239 89.4186 32.7662 89.4186 36.4388C89.4186 40.1114 88.4366 42.9537 86.4399 44.9656C84.476 47.0095 81.3336 47.9995 77.0457 47.9995ZM77.0457 42.6343C79.1406 42.6343 80.6135 42.1872 81.4973 41.2611C82.3811 40.335 82.8393 38.7382 82.8393 36.4708C82.8393 34.2033 82.3811 32.6065 81.4973 31.6804C80.6135 30.7543 79.1078 30.3072 77.0457 30.3072C74.9836 30.3072 73.5433 30.7543 72.6268 31.6804C71.743 32.6065 71.2848 34.2033 71.2848 36.4708C71.2848 38.7382 71.743 40.335 72.6268 41.2611C73.5106 42.1872 75.0163 42.6343 77.0457 42.6343Z" fill="#45486E"/>
<path d="M102.25 47.9996C100.22 47.9996 98.4202 47.6483 96.849 46.9457C95.2779 46.2431 94.034 45.0934 93.1175 43.4966C92.2338 41.8998 91.7755 39.7602 91.7755 37.1095C91.7755 34.4588 92.2665 32.2233 93.2485 30.403C94.2304 28.5827 95.5725 27.2094 97.2418 26.2833C98.9112 25.3572 100.711 24.8781 102.708 24.8781C105.196 24.8781 107.323 25.453 109.091 26.5707V16H115.572V47.5525H110.007L109.615 45.4766C108.633 46.307 107.553 46.9457 106.374 47.3609C105.229 47.808 103.854 47.9996 102.25 47.9996ZM104.017 43.3689C106.047 43.3689 107.716 42.6982 109.091 41.3569V31.2653C107.749 30.1156 106.178 29.5407 104.378 29.5407C100.351 29.5407 98.322 32.0637 98.322 37.1095C98.322 39.4727 98.813 41.1334 99.795 42.0276C100.777 42.9218 102.217 43.3689 104.017 43.3689Z" fill="#45486E"/>
<path d="M131.21 47.5527V19.5132H120.572V17.4054H144.499V19.5132H133.861V47.5527H131.21Z" fill="#8C92D9"/>
<path d="M149.245 47.5525V27.4969H145.71L146.005 25.3572H151.897V47.5525H149.245ZM148.885 19.6088V16.7985H151.897V19.6088H148.885Z" fill="#8C92D9"/>
<path d="M168.23 48.0002C164.302 48.0002 161.422 46.9783 159.654 44.9663C157.854 42.9544 156.97 40.1121 156.97 36.4395C156.97 32.5434 158.018 29.6372 160.113 27.7211C162.208 25.8049 165.055 24.8788 168.623 24.8788C170.096 24.8788 171.274 24.9746 172.158 25.1981C173.042 25.4217 173.926 25.7091 174.81 26.1243V28.232C173.107 27.4656 171.209 27.0504 169.049 27.0504C166.037 27.0504 163.713 27.7849 162.044 29.2859C160.375 30.7869 159.556 33.1821 159.556 36.4395C159.556 39.665 160.276 42.0283 161.684 43.5612C163.091 45.0941 165.514 45.8925 168.852 45.8925C169.867 45.8925 170.914 45.7967 171.962 45.5731C173.009 45.3496 173.959 45.0621 174.875 44.6789V46.8186C173.991 47.2018 172.977 47.4893 171.864 47.6809C170.751 47.8725 169.54 48.0002 168.23 48.0002Z" fill="#8C92D9"/>
<path d="M178.312 47.5525V16H180.963V36.0237L192.681 25.3572H195.857L186.495 34.0117L196.38 47.5205H193.598L184.76 35.4488L180.963 38.8979V47.5205H178.312V47.5525Z" fill="#8C92D9"/>
<path d="M208.099 48.0002C204.007 48.0002 201.028 47.0422 199.163 45.158C197.297 43.2737 196.348 40.3037 196.348 36.2798C196.348 32.735 197.166 29.9246 198.803 27.9127C200.439 25.9007 203.123 24.8788 206.822 24.8788C209.015 24.8788 210.815 25.262 212.19 26.0604C213.565 26.8588 214.58 27.9127 215.234 29.254C215.889 30.5953 216.216 32.0963 216.216 33.7569V37.7808H198.933C199.064 40.655 199.817 42.7308 201.225 43.9763C202.632 45.2538 205.087 45.8605 208.557 45.8605C210.684 45.8605 212.714 45.4773 214.71 44.6789V46.7867C212.812 47.617 210.586 48.0002 208.099 48.0002ZM198.966 35.8008H213.827V33.693C213.827 31.6172 213.27 30.0204 212.19 28.8388C211.11 27.6572 209.342 27.0504 206.855 27.0504C203.843 27.0504 201.781 27.8169 200.636 29.3178C199.555 30.8188 198.966 32.9904 198.966 35.8008Z" fill="#8C92D9"/>
<path d="M229.669 47.999C227.64 47.999 226.102 47.4561 225.021 46.3703C223.941 45.2845 223.385 43.7516 223.385 41.7716V27.4963H219.85V25.3566H223.385V19.5443L226.036 18.714V25.3566H232.615L232.452 27.4963H226.036V41.6758C226.036 43.1129 226.396 44.1667 227.084 44.8693C227.771 45.5719 228.884 45.8913 230.455 45.8913C230.88 45.8913 231.306 45.8593 231.764 45.7635C232.223 45.6677 232.746 45.54 233.27 45.3484V47.4242C232.223 47.8074 231.011 47.999 229.669 47.999Z" fill="#8C92D9"/>
</svg>
