<svg width="32" height="32" viewBox="0 0 32 32" fill="none" xmlns="http://www.w3.org/2000/svg">
<g id="wallet">
<path id="Vector" d="M29.3333 11V27M11.9881 7.97929L21.1898 2.66669L24.2647 7.99262L11.9881 7.97929ZM2.66666 9.33335C2.66666 8.59695 3.26361 8.00002 3.99999 8.00002H28C28.7364 8.00002 29.3333 8.59695 29.3333 9.33335V28C29.3333 28.7364 28.7364 29.3334 28 29.3334H3.99999C3.26361 29.3334 2.66666 28.7364 2.66666 28V9.33335ZM23.5 22H29.3333V15.3334H23.5C21.567 15.3334 20 16.8258 20 18.6667C20 20.5076 21.567 22 23.5 22Z" stroke="#03314B" stroke-width="2" stroke-linecap="round" stroke-linejoin="round"/>
</g>
</svg>
